<?xml version="1.0" encoding="UTF-8" standalone="no"?>
<!-- Created with Inkscape (http://www.inkscape.org/) -->

<svg
   width="160mm"
   height="160mm"
   viewBox="0 0 160 160"
   version="1.1"
   id="svg1"
   xml:space="preserve"
   inkscape:version="1.4.2 (f4327f4, 2025-05-13)"
   sodipodi:docname="icon.svg"
   xmlns:inkscape="http://www.inkscape.org/namespaces/inkscape"
   xmlns:sodipodi="http://sodipodi.sourceforge.net/DTD/sodipodi-0.dtd"
   xmlns="http://www.w3.org/2000/svg"
   xmlns:svg="http://www.w3.org/2000/svg"><sodipodi:namedview
     id="namedview1"
     pagecolor="#ffffff"
     bordercolor="#000000"
     borderopacity="0.25"
     inkscape:showpageshadow="2"
     inkscape:pageopacity="0.0"
     inkscape:pagecheckerboard="0"
     inkscape:deskcolor="#d1d1d1"
     inkscape:document-units="mm"
     inkscape:zoom="0.70710678"
     inkscape:cx="122.32947"
     inkscape:cy="354.2605"
     inkscape:window-width="1920"
     inkscape:window-height="1129"
     inkscape:window-x="-8"
     inkscape:window-y="-8"
     inkscape:window-maximized="1"
     inkscape:current-layer="layer1" /><defs
     id="defs1"><inkscape:path-effect
       effect="bspline"
       id="path-effect2"
       is_visible="true"
       lpeversion="1.3"
       weight="33.333333"
       steps="2"
       helper_size="0"
       apply_no_weight="true"
       apply_with_weight="true"
       only_selected="false"
       uniform="false" /></defs><g
     inkscape:label="Layer 1"
     inkscape:groupmode="layer"
     id="layer1"><g
       id="g8"
       transform="matrix(1.2581601,0,0,1.4670419,-54.239997,-123.615)"><path
         id="path2"
         style="opacity:1;fill:#483737;stroke:#000000;stroke-width:0.79375;stroke-linecap:square;paint-order:markers stroke fill"
         d="m 71.362774,113.58142 0.925589,12.97468 c -2.890687,0.77325 -5.574663,1.63989 -7.995229,2.59618 -23.089946,9.12216 -22.213171,26.41442 -0.365952,36.63784 21.847218,10.22342 64.663818,13.37792 87.754238,4.25558 23.09042,-9.12235 26.45251,-30.52067 4.60529,-40.74409 -3.40888,-1.59519 -7.43135,-2.91823 -11.88093,-3.98068 0,0 -0.3072,-6.791 -2.08293,-17.71861 -16.00721,-4.97869 -56.123692,-6.6674 -70.960076,5.9791 z"
         transform="rotate(2.8990116,213.32151,99.062578)"
         sodipodi:nodetypes="cccsssccc" /><path
         style="opacity:1;fill:#323232;fill-opacity:1;stroke:#000000;stroke-width:0.79375;stroke-linecap:square;stroke-opacity:1;paint-order:markers stroke fill"
         d="m 71.219481,133.95505 c 0,0 51.550509,30.91453 71.896629,-2.87203 l 0.1432,7.51523 c 0,0 -18.03032,30.79271 -71.894878,0.25768 z"
         id="path4"
         sodipodi:nodetypes="ccccc" /><path
         style="opacity:1;fill:none;stroke:#000000;stroke-width:0.726812;stroke-linecap:square;paint-order:markers stroke fill"
         d="m 70.860031,106.57916 c 9.471248,4.74983 61.001839,19.8131 70.999969,-2.47886"
         id="path14"
         sodipodi:nodetypes="cc" /><g
         id="g16"
         transform="translate(-6.2786352,0.67308304)"><path
           style="opacity:1;fill:none;stroke:#000000;stroke-width:3.43751;stroke-linecap:square;stroke-dasharray:none;paint-order:markers stroke fill"
           d="m 118.78258,124.86295 c 0,0 -1.85427,-7.23697 3.10061,-6.37688 7.23305,1.25556 7.37301,3.36403 8.0192,6.58454 1.52732,7.61209 -4.95666,3.81562 -5.34279,6.42022 -0.0907,0.61187 0.026,2.11319 0.58387,5.46845"
           id="path15"
           sodipodi:nodetypes="csssc" /><ellipse
           style="opacity:1;fill:#000000;fill-opacity:1;stroke:#000000;stroke-width:1.06089;stroke-linecap:square;stroke-dasharray:none;paint-order:markers stroke fill"
           id="path16"
           cx="108.9706"
           cy="122.29746"
           rx="1.2289071"
           ry="1.3683546"
           transform="matrix(0.98101109,0.19395167,0.15535064,0.98785939,0,0)" /></g></g><path
       style="opacity:1;fill:#decd87;stroke:#000000;stroke-width:0.543542;stroke-linecap:square;paint-order:markers stroke fill"
       d="M 34.93545,50.894363 35.076078,80.30629"
       id="path12" /><path
       style="opacity:1;fill:#decd87;stroke:#000000;stroke-width:0.543542;stroke-linecap:square;paint-order:markers stroke fill"
       d="m 126.02689,50.236068 0.14062,29.411928"
       id="path13" /></g></svg>
