<?xml version="1.0" encoding="UTF-8" standalone="no"?>
<!-- Created with Inkscape (http://www.inkscape.org/) -->

<svg
   width="160mm"
   height="160mm"
   viewBox="0 0 160 160"
   version="1.1"
   id="svg1"
   xml:space="preserve"
   inkscape:version="1.4.2 (f4327f4, 2025-05-13)"
   sodipodi:docname="aussieAvatar.svg"
   xmlns:inkscape="http://www.inkscape.org/namespaces/inkscape"
   xmlns:sodipodi="http://sodipodi.sourceforge.net/DTD/sodipodi-0.dtd"
   xmlns="http://www.w3.org/2000/svg"
   xmlns:svg="http://www.w3.org/2000/svg"><sodipodi:namedview
     id="namedview1"
     pagecolor="#ffffff"
     bordercolor="#000000"
     borderopacity="0.25"
     inkscape:showpageshadow="2"
     inkscape:pageopacity="0.0"
     inkscape:pagecheckerboard="0"
     inkscape:deskcolor="#d1d1d1"
     inkscape:document-units="mm"
     inkscape:zoom="45.254834"
     inkscape:cx="29.996796"
     inkscape:cy="240.47155"
     inkscape:window-width="1920"
     inkscape:window-height="1129"
     inkscape:window-x="-8"
     inkscape:window-y="-8"
     inkscape:window-maximized="1"
     inkscape:current-layer="layer1" /><defs
     id="defs1"><linearGradient
       id="swatch11"
       inkscape:swatch="solid"><stop
         style="stop-color:#483737;stop-opacity:1;"
         offset="0"
         id="stop11" /></linearGradient><inkscape:path-effect
       effect="bspline"
       id="path-effect2"
       is_visible="true"
       lpeversion="1.3"
       weight="33.333333"
       steps="2"
       helper_size="0"
       apply_no_weight="true"
       apply_with_weight="true"
       only_selected="false"
       uniform="false" /></defs><g
     inkscape:label="Layer 1"
     inkscape:groupmode="layer"
     id="layer1"><path
       style="opacity:1;fill:#483737;stroke:#000000;stroke-width:0.803903;stroke-linecap:square;paint-order:markers stroke fill"
       d="M 41.266102,64.98384 6.2436625,64.699353 40.224902,24.492844 19.874022,38.337534 c 0,0 -18.3631195,-14.31882 -19.12035954,-37.2668803 L 148.60516,0.78616367 143.49378,19.277374 c 0,0 -1.32517,6.73269 -8.51897,11.85334 l 23.94778,37.266881 z"
       id="path7" /><path
       style="opacity:1;fill:#decd87;stroke:#000000;stroke-width:0.803903;stroke-linecap:square;paint-order:markers stroke fill"
       d="M 121.62215,0.86018367 C 117.47241,16.416384 130.8276,31.797814 130.8276,31.797814 L 154.78902,66.665167 11.422042,63.178425 45.690902,25.226664 c 0,0 10.65644,-15.5155403 7.71146,-24.23238033 z"
       id="path9"
       sodipodi:nodetypes="ccccccc" /><path
       style="opacity:1;fill:#1a1a1a;stroke:#000000;stroke-width:0.749327;stroke-linecap:square;paint-order:markers stroke fill"
       id="path10"
       sodipodi:type="arc"
       sodipodi:cx="-87.149147"
       sodipodi:cy="1.0258127"
       sodipodi:rx="37.609077"
       sodipodi:ry="27.178631"
       sodipodi:start="0"
       sodipodi:end="3.1415927"
       sodipodi:open="true"
       sodipodi:arc-type="arc"
       d="m -49.54007,1.0258127 a 37.609077,27.178631 0 0 1 -18.804539,23.5373853 37.609077,27.178631 0 0 1 -37.609081,-1e-6 37.609077,27.178631 0 0 1 -18.80453,-23.5373843"
       transform="scale(-1,1)" /><path
       id="path11"
       style="opacity:1;fill:#483737;stroke:#000000;stroke-width:0.803903;stroke-linecap:square;paint-order:markers stroke fill"
       d="M 158.92257,68.397524 41.266112,64.983607 6.2437525,64.69916 40.225012,24.492744 l -20.3508,13.84479 c 0,0 -18.3631595,-14.31904 -19.12040954,-37.2671003 L 148.6052,0.78598367 143.49384,19.277314 c 0,0 -1.32531,6.733 -8.5191,11.85365 z M 154.78903,66.665167 130.8276,31.797814 c 0,0 -13.35542,-15.38125 -9.20568,-30.93745033 l -68.219798,0.13412 C 56.347102,9.7113137 45.690902,25.226664 45.690902,25.226664 l -34.26886,37.951761 z" /><path
       style="opacity:1;fill:#e3e2db;stroke:#000000;stroke-width:0.803903;stroke-linecap:square;paint-order:markers stroke fill"
       d="m 45.950152,92.979087 -0.0947,-32.525563 c 0,0 1.54149,-20.05935 23.474492,-31.57729 11.737249,-6.16374 68.151786,-18.01707 64.081606,34.137616 l -3.88087,28.353177 z"
       id="path8"
       sodipodi:nodetypes="ccsccc" /><path
       style="opacity:1;fill:#1a1a1a;stroke:#24221c;stroke-width:0.782803;stroke-linecap:square;paint-order:markers stroke fill"
       d="m 60.043214,55.235144 c 0,0 17.73358,-4.00907 36.590523,-3.1406 0,0 0.825068,-19.19248 -19.161173,-20.45037 -19.986232,-1.25793 -17.42935,23.59097 -17.42935,23.59097 z"
       id="path5"
       sodipodi:nodetypes="ccsc" /><path
       style="opacity:1;fill:#1a1a1a;stroke:#000000;stroke-width:0.91125;stroke-linecap:square;paint-order:markers stroke fill"
       d="m 100.99673,51.641324 c 0,0 19.75947,0.81885 29.98576,9.567958 -0.51192,-9.067878 1.79779,-14.836068 -13.24233,-22.270328 -17.30562,-8.55404 -16.74343,12.70237 -16.74343,12.70237 z"
       id="path6"
       sodipodi:nodetypes="ccsc" /><g
       id="g8"
       transform="matrix(1.0113663,0,0,-1.179275,-20.773318,257.87913)"><path
         id="path2"
         style="opacity:1;fill:#483737;fill-opacity:1;stroke:#000000;stroke-width:0.79375;stroke-linecap:square;paint-order:markers stroke fill"
         d="m 71.362774,113.58142 0.925589,12.97468 c -2.890687,0.77325 -5.574663,1.63989 -7.995229,2.59618 -23.089946,9.12216 -22.213171,26.41442 -0.365952,36.63784 21.847218,10.22342 64.663818,13.37792 87.754238,4.25558 23.09042,-9.12235 26.45251,-30.52067 4.60529,-40.74409 -3.40888,-1.59519 -7.43135,-2.91823 -11.88093,-3.98068 0,0 -0.3072,-6.791 -2.08293,-17.71861 -16.00721,-4.97869 -56.123692,-6.6674 -70.960076,5.9791 z"
         transform="rotate(2.8990116,213.32151,99.062578)"
         sodipodi:nodetypes="cccsssccc" /><path
         style="opacity:1;fill:#323232;fill-opacity:1;stroke:#000000;stroke-width:0.79375;stroke-linecap:square;stroke-opacity:1;paint-order:markers stroke fill"
         d="m 71.219481,133.95505 c 0,0 51.550509,30.91453 71.896629,-2.87203 l 0.1432,7.51523 c 0,0 -18.03032,30.79271 -71.894878,0.25768 z"
         id="path4"
         sodipodi:nodetypes="ccccc" /><path
         style="opacity:1;fill:none;stroke:#000000;stroke-width:0.726812;stroke-linecap:square;paint-order:markers stroke fill"
         d="m 70.860031,106.57916 c 9.471248,4.74983 61.001839,19.8131 70.999969,-2.47886"
         id="path14"
         sodipodi:nodetypes="cc" /><g
         id="g16"
         transform="translate(-6.2786352,0.67308304)"><path
           style="opacity:1;fill:none;stroke:#000000;stroke-width:3.43751;stroke-linecap:square;stroke-dasharray:none;paint-order:markers stroke fill"
           d="m 118.78258,124.86295 c 0,0 -1.85427,-7.23697 3.10061,-6.37688 7.23305,1.25556 7.37301,3.36403 8.0192,6.58454 1.52732,7.61209 -4.95666,3.81562 -5.34279,6.42022 -0.0907,0.61187 0.026,2.11319 0.58387,5.46845"
           id="path15"
           sodipodi:nodetypes="csssc" /><ellipse
           style="opacity:1;fill:#000000;fill-opacity:1;stroke:#000000;stroke-width:1.06089;stroke-linecap:square;stroke-dasharray:none;paint-order:markers stroke fill"
           id="path16"
           cx="108.9706"
           cy="122.29746"
           rx="1.2289071"
           ry="1.3683546"
           transform="matrix(0.98101109,0.19395167,0.15535064,0.98785939,0,0)" /></g></g><path
       style="opacity:1;fill:#decd87;stroke:#000000;stroke-width:0.436924;stroke-linecap:square;paint-order:markers stroke fill"
       d="m 50.909962,117.60056 0.11304,-23.642643"
       id="path12" /><path
       style="opacity:1;fill:#decd87;stroke:#000000;stroke-width:0.436924;stroke-linecap:square;paint-order:markers stroke fill"
       d="m 124.1334,118.12973 0.11304,-23.642653"
       id="path13" /><path
       style="fill:#241c1c;fill-opacity:1;stroke:#000000;stroke-width:0.8;stroke-linecap:square;stroke-dasharray:none;stroke-opacity:1;paint-order:markers stroke fill"
       d="M 6.126181,64.849433 19.86258,38.358842 40.302019,24.420742 Z"
       id="path3"
       sodipodi:nodetypes="cccc" /></g></svg>
