<?xml version="1.0" encoding="UTF-8" standalone="no"?>
<!-- Created with Inkscape (http://www.inkscape.org/) -->

<svg
   width="160mm"
   height="160mm"
   viewBox="0 0 160 160"
   version="1.1"
   id="svg1"
   xml:space="preserve"
   inkscape:version="1.4.2 (f4327f4, 2025-05-13)"
   sodipodi:docname="blackAvatar.svg"
   xmlns:inkscape="http://www.inkscape.org/namespaces/inkscape"
   xmlns:sodipodi="http://sodipodi.sourceforge.net/DTD/sodipodi-0.dtd"
   xmlns="http://www.w3.org/2000/svg"
   xmlns:svg="http://www.w3.org/2000/svg"><sodipodi:namedview
     id="namedview1"
     pagecolor="#ffffff"
     bordercolor="#000000"
     borderopacity="0.25"
     inkscape:showpageshadow="2"
     inkscape:pageopacity="0.0"
     inkscape:pagecheckerboard="0"
     inkscape:deskcolor="#d1d1d1"
     inkscape:document-units="mm"
     inkscape:zoom="32"
     inkscape:cx="28.515625"
     inkscape:cy="370.42188"
     inkscape:window-width="1920"
     inkscape:window-height="1129"
     inkscape:window-x="-8"
     inkscape:window-y="-8"
     inkscape:window-maximized="1"
     inkscape:current-layer="layer1" /><defs
     id="defs1"><inkscape:path-effect
       effect="bspline"
       id="path-effect2"
       is_visible="true"
       lpeversion="1.3"
       weight="33.333333"
       steps="2"
       helper_size="0"
       apply_no_weight="true"
       apply_with_weight="true"
       only_selected="false"
       uniform="false" /></defs><g
     inkscape:label="Layer 1"
     inkscape:groupmode="layer"
     id="layer1"><path
       style="opacity:1;fill:#483737;stroke:#000000;stroke-width:0.803903;stroke-linecap:square;paint-order:markers stroke fill"
       d="M 41.266107,96.038754 6.2436675,96.323241 40.224901,136.52975 19.874023,122.68506 c 0,0 -18.3631182,14.31882 -19.12036046,37.26688 l 147.85149746,0.28449 -5.11138,-18.49121 c 0,0 -1.32517,-6.73269 -8.51897,-11.85334 l 23.94778,-37.266881 z"
       id="path7" /><path
       style="opacity:1;fill:#4d4d4d;stroke:#000000;stroke-width:0.803903;stroke-linecap:square;paint-order:markers stroke fill"
       d="m 121.62215,160.16241 c -4.14974,-15.5562 9.20545,-30.93763 9.20545,-30.93763 L 154.78902,94.357427 11.42204,97.844169 45.6909,135.79593 c 0,0 10.656442,15.51554 7.711463,24.23238 z"
       id="path9"
       sodipodi:nodetypes="ccccccc" /><path
       style="opacity:1;fill:#333333;stroke:#000000;stroke-width:0.749327;stroke-linecap:square;paint-order:markers stroke fill"
       id="path10"
       sodipodi:type="arc"
       sodipodi:cx="-87.149147"
       sodipodi:cy="-159.99678"
       sodipodi:rx="37.609077"
       sodipodi:ry="27.178631"
       sodipodi:start="0"
       sodipodi:end="3.1415927"
       sodipodi:open="true"
       sodipodi:arc-type="arc"
       d="m -49.54007,-159.99678 a 37.609077,27.178631 0 0 1 -18.804539,23.53738 37.609077,27.178631 0 0 1 -37.609081,0 37.609077,27.178631 0 0 1 -18.80453,-23.53738"
       transform="scale(-1)" /><path
       id="path11"
       style="opacity:1;fill:#483737;stroke:#000000;stroke-width:0.803903;stroke-linecap:square;paint-order:markers stroke fill"
       d="M 158.92257,92.62507 41.26611,96.038987 6.2437494,96.323434 40.225013,136.52985 19.874217,122.68506 c 0,0 -18.3631664,14.31904 -19.12040875,37.2671 L 148.6052,160.23661 143.49384,141.74528 c 0,0 -1.32531,-6.733 -8.5191,-11.85365 z m -4.13354,1.732357 -23.96143,34.867353 c 0,0 -13.35542,15.38125 -9.20568,30.93745 L 53.402126,160.02811 C 56.347106,151.31128 45.6909,135.79593 45.6909,135.79593 L 11.422041,97.844169 Z" /><path
       style="opacity:1;fill:#e3e2db;stroke:#000000;stroke-width:0.803903;stroke-linecap:square;paint-order:markers stroke fill"
       d="m 45.950149,68.043511 -0.09465,32.525559 c 0,0 1.541494,20.05935 23.474496,31.57729 11.737249,6.16374 68.151785,18.01707 64.081605,-34.137616 l -3.88087,-28.353173 z"
       id="path8"
       sodipodi:nodetypes="ccsccc" /><path
       style="opacity:1;fill:#1a1a1a;stroke:#24221c;stroke-width:0.782803;stroke-linecap:square;paint-order:markers stroke fill"
       d="m 60.043215,105.78745 c 0,0 17.73358,4.00907 36.590523,3.1406 0,0 0.825068,19.19248 -19.161173,20.45037 -19.986236,1.25793 -17.42935,-23.59097 -17.42935,-23.59097 z"
       id="path5"
       sodipodi:nodetypes="ccsc" /><path
       style="opacity:1;fill:#1a1a1a;stroke:#000000;stroke-width:0.91125;stroke-linecap:square;paint-order:markers stroke fill"
       d="m 100.99673,109.38127 c 0,0 19.75947,-0.81885 29.98576,-9.567958 -0.51192,9.067878 1.79779,14.836068 -13.24233,22.270328 -17.30562,8.55404 -16.74343,-12.70237 -16.74343,-12.70237 z"
       id="path6"
       sodipodi:nodetypes="ccsc" /><g
       id="g1"
       transform="matrix(1.0113663,0,0,1.179275,-20.773318,-96.856529)"
       inkscape:label="hat"><path
         id="path2"
         style="opacity:1;fill:#1a1a1a;stroke:#000000;stroke-width:0.79375;stroke-linecap:square;paint-order:markers stroke fill"
         d="m 71.362774,113.58142 0.925589,12.97468 c -2.890687,0.77325 -5.574663,1.63989 -7.995229,2.59618 -23.089946,9.12216 -22.213171,26.41442 -0.365952,36.63784 21.847218,10.22342 64.663818,13.37792 87.754238,4.25558 23.09042,-9.12235 26.45251,-30.52067 4.60529,-40.74409 -3.40888,-1.59519 -7.43135,-2.91823 -11.88093,-3.98068 0,0 -0.3072,-6.791 -2.08293,-17.71861 -16.00721,-4.97869 -56.123692,-6.6674 -70.960076,5.9791 z"
         transform="rotate(2.8990116,213.32151,99.062578)"
         sodipodi:nodetypes="cccsssccc" /><path
         style="opacity:1;fill:#333333;fill-opacity:1;stroke:#000000;stroke-width:0.79375;stroke-linecap:square;stroke-opacity:1;paint-order:markers stroke fill"
         d="m 71.219481,133.95505 c 0,0 51.550509,30.91453 71.896629,-2.87203 l 0.1432,7.51523 c 0,0 -18.03032,30.79271 -71.894878,0.25768 z"
         id="path4"
         sodipodi:nodetypes="ccccc" /><path
         style="opacity:1;fill:none;stroke:#000000;stroke-width:0.726812;stroke-linecap:square;paint-order:markers stroke fill"
         d="m 70.860031,106.57916 c 9.471248,4.74983 61.001839,19.8131 70.999969,-2.47886"
         id="path14"
         sodipodi:nodetypes="cc" /></g><g
       id="g8"
       transform="matrix(1.0113663,0,0,1.179275,-20.773318,-96.856529)"><path
         style="fill:none;stroke:#333333;stroke-width:4.84541;stroke-linecap:square;stroke-dasharray:none;paint-order:markers stroke fill"
         d="m 112.48118,125.51364 c 0,0 -1.86193,-7.26688 3.11342,-6.40323 7.26295,1.26075 7.40348,3.37793 8.05235,6.61175 1.53363,7.64355 -4.97715,3.83139 -5.36487,6.44675 -0.0911,0.6144 0.0261,2.12192 0.58628,5.49105"
         id="path1"
         sodipodi:nodetypes="csssc" /><ellipse
         style="fill:#000000;fill-opacity:1;stroke:#333333;stroke-width:2.92523;stroke-linecap:square;stroke-dasharray:none;paint-order:markers stroke fill"
         id="ellipse1"
         cx="102.25272"
         cy="124.34658"
         rx="1.2339857"
         ry="1.3740094"
         transform="matrix(0.98101109,0.19395166,0.15535064,0.98785939,0,0)" /></g><g
       id="g16"
       transform="matrix(1.0113663,0,0,1.179275,-27.123319,-96.062779)"
       sodipodi:insensitive="true"
       inkscape:label="?"><path
         style="opacity:1;fill:none;stroke:#000000;stroke-width:3.43751;stroke-linecap:square;stroke-dasharray:none;paint-order:markers stroke fill"
         d="m 118.78258,124.86295 c 0,0 -1.85427,-7.23697 3.10061,-6.37688 7.23305,1.25556 7.37301,3.36403 8.0192,6.58454 1.52732,7.61209 -4.95666,3.81562 -5.34279,6.42022 -0.0907,0.61187 0.026,2.11319 0.58387,5.46845"
         id="path15"
         sodipodi:nodetypes="csssc" /><ellipse
         style="opacity:1;fill:#000000;fill-opacity:1;stroke:#000000;stroke-width:0.810815;stroke-linecap:square;stroke-dasharray:none;paint-order:markers stroke fill"
         id="path16"
         cx="108.9706"
         cy="122.29746"
         rx="1.2289071"
         ry="1.3683546"
         transform="matrix(0.98101109,0.19395167,0.15535064,0.98785939,0,0)" /></g><path
       style="opacity:1;fill:#decd87;stroke:#000000;stroke-width:0.436924;stroke-linecap:square;paint-order:markers stroke fill"
       d="m 50.909961,43.422037 0.113043,23.642645"
       id="path12" /><path
       style="opacity:1;fill:#decd87;stroke:#000000;stroke-width:0.436924;stroke-linecap:square;paint-order:markers stroke fill"
       d="m 124.1334,42.89287 0.11304,23.642645"
       id="path13" /><path
       style="fill:#241c1c;fill-opacity:1;stroke:#000000;stroke-width:0.8;stroke-linecap:square;stroke-dasharray:none;stroke-opacity:1;paint-order:markers stroke fill"
       d="m 6.1261779,96.176351 13.7363991,26.490589 20.439439,13.9381 z"
       id="path3"
       sodipodi:nodetypes="cccc" /></g></svg>
